<?xml version="1.0" encoding="UTF-8"?>
<svg xmlns="http://www.w3.org/2000/svg" xmlns:xlink="http://www.w3.org/1999/xlink" width="432px" height="432px" viewBox="0 0 432 432" version="1.1">

<g id="surface1">
<path style="fill-rule:nonzero;fill:rgb(22.745098%,91.764706%,99.607843%);fill-opacity:1;stroke-width:0.09375;stroke-linecap:butt;stroke-linejoin:miter;stroke:rgb(22.745098%,91.764706%,99.607843%);stroke-opacity:1;stroke-miterlimit:4;" d="M 428.309939 179.184201 C 429.474501 178.720638 430.752127 178.505816 432.00714 178.584961 C 429.994596 187.799696 429.960677 197.217947 429.519727 206.590972 C 420.983377 416.811306 411.960851 627.009028 403.424501 837.229362 C 402.395616 866.569531 400.778798 895.898394 400.145638 925.24987 C 398.17832 933.413108 398.585352 941.870312 399.184592 950.180534 C 406.850347 942.017296 411.497287 931.694531 417.173112 922.174523 C 522.571593 740.921246 628.060525 559.713194 733.481619 378.459918 C 737.201432 372.693641 739.80191 366.09069 744.833268 361.262847 C 797.46467 346.948915 850.288281 333.256836 902.919683 318.886372 C 905.248806 318.049696 907.41964 319.462999 909.341732 320.638867 C 923.621745 329.853602 938.523611 338.073372 952.950608 347.050673 C 962.911567 353.291819 969.503212 363.252778 976.954145 372.049175 C 1010.183724 411.04503 1042.994965 450.391385 1076.394141 489.240256 C 1074.392904 492.575651 1072.0977 495.74145 1069.485916 498.635894 C 1057.082769 510.15714 1045.403234 522.447222 1033.384505 534.386806 C 1015.486437 552.3301 997.690126 570.375152 979.238043 587.730512 C 901.314171 664.636806 824.328733 742.504145 746.75536 819.772244 C 740.08457 826.590017 730.485417 828.647786 721.881228 831.915343 C 614.458898 872.324501 506.934809 912.417079 399.546398 952.916688 C 345.512999 963.149002 291.117795 971.493142 236.846962 980.357378 C 217.06072 983.014388 197.432769 986.711589 177.714366 989.922613 C 165.492122 992.093446 153.122895 993.563281 141.002409 996.310742 C 138.356706 992.986654 136.785113 988.995486 134.817795 985.264366 C 99.462609 915.729861 65.023242 845.720486 29.995942 776.005078 C 20.001063 756.490191 10.628038 736.647418 0 717.471723 L 0 715.515712 C 3.765039 708.030859 6.297678 700.025911 9.373025 692.247092 C 60.602431 558.085069 109.864518 423.176823 161.150456 289.037413 C 161.772309 287.126628 163.208225 285.724631 165.085091 285.046246 C 252.608116 249.216189 340.866059 215.195161 428.309939 179.184201 Z M 428.309939 179.184201 " transform="matrix(0.345489,0,0,0.345489,0,0)"/>
<path style="fill-rule:nonzero;fill:rgb(10.588235%,64.313725%,85.882353%);fill-opacity:1;stroke-width:0.09375;stroke-linecap:butt;stroke-linejoin:miter;stroke:rgb(10.588235%,64.313725%,85.882353%);stroke-opacity:1;stroke-miterlimit:4;" d="M 432.00714 178.584961 C 453.839844 191.655187 475.977821 204.19401 497.776606 217.298155 C 497.109527 219.152409 496.137174 220.904905 495.571853 222.793077 C 466.129926 448.209245 436.484484 673.625412 406.759896 899.007661 C 405.776237 907.973655 405.697092 917.66326 400.145638 925.24987 C 400.778798 895.898394 402.395616 866.569531 403.424501 837.229362 C 411.960851 627.009028 420.983377 416.811306 429.519727 206.590972 C 429.960677 197.217947 429.994596 187.799696 432.00714 178.584961 Z M 432.00714 178.584961 " transform="matrix(0.345489,0,0,0.345489,0,0)"/>
<path style="fill-rule:nonzero;fill:rgb(12.156863%,71.764706%,95.686275%);fill-opacity:1;stroke-width:0.09375;stroke-linecap:butt;stroke-linejoin:miter;stroke:rgb(12.156863%,71.764706%,95.686275%);stroke-opacity:1;stroke-miterlimit:4;" d="M 495.571853 222.793077 C 496.137174 220.904905 497.109527 219.152409 497.776606 217.298155 C 578.334874 264.773828 659.198416 311.695486 739.666233 359.29553 C 741.294358 360.143511 743.05816 360.720139 744.833268 361.262847 C 739.80191 366.09069 737.201432 372.693641 733.481619 378.459918 C 628.060525 559.713194 522.571593 740.921246 417.173112 922.174523 C 411.497287 931.694531 406.850347 942.017296 399.184592 950.180534 C 398.585352 941.870312 398.17832 933.413108 400.145638 925.24987 C 405.697092 917.66326 405.776237 907.973655 406.759896 899.007661 C 436.484484 673.625412 466.129926 448.209245 495.571853 222.793077 Z M 495.571853 222.793077 " transform="matrix(0.345489,0,0,0.345489,0,0)"/>
<path style="fill-rule:nonzero;fill:rgb(1.176471%,51.372549%,91.372549%);fill-opacity:1;stroke-width:0.09375;stroke-linecap:butt;stroke-linejoin:miter;stroke:rgb(1.176471%,51.372549%,91.372549%);stroke-opacity:1;stroke-miterlimit:4;" d="M 1076.394141 489.240256 C 1135.277995 556.513477 1191.041276 626.455013 1250.004275 693.660395 L 1250.004275 717.336046 C 1171.899501 678.984657 1093.15026 641.978733 1014.830664 604.079601 C 1017.238932 596.074653 1021.614518 588.90638 1025.730056 581.715495 C 1037.454818 561.974479 1048.365516 541.7699 1059.943294 521.938433 C 1062.826432 516.82793 1066.150521 511.943555 1068.615321 506.606923 C 1069.994705 504.153429 1069.293707 501.315516 1069.485916 498.635894 C 1072.0977 495.74145 1074.392904 492.575651 1076.394141 489.240256 Z M 1076.394141 489.240256 " transform="matrix(0.345489,0,0,0.345489,0,0)"/>
<path style="fill-rule:nonzero;fill:rgb(1.176471%,51.372549%,91.372549%);fill-opacity:1;stroke-width:0.09375;stroke-linecap:butt;stroke-linejoin:miter;stroke:rgb(1.176471%,51.372549%,91.372549%);stroke-opacity:1;stroke-miterlimit:4;" d="M 213.759245 1045.708507 C 219.491602 1029.664692 225.201345 1013.620877 230.605816 997.475304 C 241.335612 998.979058 251.907118 1001.455165 262.591688 1003.298112 C 321.147656 1014.299262 379.805382 1024.735091 438.440495 1035.363129 C 448.751953 1036.923416 458.927734 1040.021376 469.454015 1039.65957 C 478.51046 1050.298915 487.012891 1061.413129 496.02411 1072.0977 C 460.352344 1072.425586 424.669271 1072.0977 388.997504 1072.22207 C 327.558398 1072.109006 266.107986 1072.482118 204.680187 1072.007248 C 207.1676 1063.075174 210.796962 1054.504905 213.759245 1045.708507 Z M 213.759245 1045.708507 " transform="matrix(0.345489,0,0,0.345489,0,0)"/>
<path style="fill-rule:nonzero;fill:rgb(0.784314%,45.882353%,81.960784%);fill-opacity:1;stroke-width:0.09375;stroke-linecap:butt;stroke-linejoin:miter;stroke:rgb(0.784314%,45.882353%,81.960784%);stroke-opacity:1;stroke-miterlimit:4;" d="M 1033.384505 534.386806 C 1045.403234 522.447222 1057.082769 510.15714 1069.485916 498.635894 C 1069.293707 501.315516 1069.994705 504.153429 1068.615321 506.606923 C 1066.150521 511.943555 1062.826432 516.82793 1059.943294 521.938433 C 1048.365516 541.7699 1037.454818 561.974479 1025.730056 581.715495 C 1021.614518 588.90638 1017.238932 596.074653 1014.830664 604.079601 C 1006.294314 600.020595 997.825803 595.803299 989.357292 591.597309 C 986.112348 590.003103 982.765647 588.578494 979.238043 587.730512 C 997.690126 570.375152 1015.486437 552.3301 1033.384505 534.386806 Z M 1033.384505 534.386806 " transform="matrix(0.345489,0,0,0.345489,0,0)"/>
<path style="fill-rule:nonzero;fill:rgb(0.784314%,45.882353%,81.960784%);fill-opacity:1;stroke-width:0.09375;stroke-linecap:butt;stroke-linejoin:miter;stroke:rgb(0.784314%,45.882353%,81.960784%);stroke-opacity:1;stroke-miterlimit:4;" d="M 236.846962 980.357378 C 291.117795 971.493142 345.512999 963.149002 399.546398 952.916688 C 406.646832 963.465582 415.194488 972.951671 423.052452 982.935243 C 438.463108 1001.884809 454.201649 1020.585634 469.454015 1039.65957 C 458.927734 1040.021376 448.751953 1036.923416 438.440495 1035.363129 C 379.805382 1024.735091 321.147656 1014.299262 262.591688 1003.298112 C 251.907118 1001.455165 241.335612 998.979058 230.605816 997.475304 C 232.437457 991.675109 234.958789 986.134961 236.846962 980.357378 Z M 236.846962 980.357378 " transform="matrix(0.345489,0,0,0.345489,0,0)"/>
</g>
</svg>
